# xmcd
#
# Track frame offsets: 
#        150
#        13956
#        28929
#        46152
#
# Disc length: 834 seconds
#
# Revision: 0
# Processed by: cddbd v1.5.2PL0 Copyright (c) Steve Scherf et al.
# Submitted via: ExactAudioCopy v1.0b1
#
DISCID=2d034004
DTITLE=Bakerville - Demo
DYEAR=2004
DGENRE=Country
TTITLE0=Never Be
TTITLE1=Them Hills
TTITLE2=Cowboy
TTITLE3=Mrs Johnson
EXTD=
EXTT0=
EXTT1=
EXTT2=
EXTT3=
PLAYORDER=
